<svg width="15" height="15" viewBox="0 0 15 15" fill="none" xmlns="http://www.w3.org/2000/svg">
<g clip-path="url(#clip0)">
<path d="M5.41027 12.0607C5.30598 12.0801 5.26042 12.129 5.27349 12.2071C5.28648 12.2852 5.34507 12.3113 5.44923 12.2852C5.55352 12.2592 5.59904 12.2135 5.58594 12.1485C5.57301 12.0769 5.51442 12.0476 5.41027 12.0607Z" fill="black"/>
<path d="M4.85357 12.1386C4.74939 12.1386 4.69733 12.1742 4.69733 12.246C4.69733 12.3306 4.7527 12.3663 4.86332 12.3533C4.96751 12.3533 5.01964 12.3175 5.01964 12.246C5.01964 12.1615 4.96426 12.1255 4.85357 12.1386Z" fill="black"/>
<path d="M4.09186 12.1093C4.06586 12.1809 4.10821 12.2296 4.21879 12.2558C4.31644 12.2947 4.37832 12.2752 4.40431 12.1972C4.42388 12.1257 4.38153 12.0737 4.27738 12.0409C4.1797 12.015 4.11789 12.0374 4.09186 12.1093Z" fill="black"/>
<path d="M14.1748 0.82512C13.6246 0.275074 12.9624 0 12.1874 0H2.81248C2.03781 0 1.3753 0.275074 0.82512 0.82512C0.275074 1.37527 0 2.03778 0 2.81248V12.1876C0 12.9623 0.275074 13.6248 0.82512 14.1748C1.37527 14.7249 2.03781 15 2.81248 15H4.99998C5.14309 15 5.25059 14.9951 5.32219 14.9855C5.39374 14.9757 5.4653 14.9333 5.53696 14.8584C5.60865 14.7836 5.64436 14.6745 5.64436 14.5313C5.64436 14.5119 5.64265 14.2903 5.63943 13.8672C5.63612 13.4439 5.63451 13.1086 5.63451 12.8612L5.40989 12.9003C5.26667 12.9263 5.086 12.9378 4.86788 12.9345C4.64986 12.9312 4.42356 12.9085 4.18922 12.8661C3.95475 12.8237 3.73673 12.7261 3.53489 12.5733C3.33315 12.4201 3.18993 12.22 3.10528 11.9727L3.00759 11.7479C2.94249 11.5983 2.84002 11.4322 2.70002 11.2501C2.56002 11.0677 2.41844 10.944 2.27523 10.8789L2.20685 10.8301C2.16133 10.7975 2.11902 10.7583 2.07992 10.7128C2.04089 10.6671 2.01161 10.6215 1.99208 10.5761C1.97255 10.5304 1.98876 10.4929 2.04089 10.4636C2.09302 10.4343 2.18732 10.4198 2.32411 10.4198L2.51935 10.4491C2.6496 10.475 2.81064 10.5531 3.0028 10.6834C3.19482 10.8136 3.35268 10.9828 3.4764 11.1911C3.62621 11.4581 3.80671 11.6614 4.0184 11.8014C4.22993 11.9415 4.44319 12.0115 4.658 12.0115C4.8728 12.0115 5.05833 11.9952 5.21465 11.9628C5.37079 11.9302 5.51729 11.8812 5.65407 11.8161C5.71267 11.38 5.8722 11.0445 6.13253 10.8102C5.76148 10.7711 5.42784 10.7126 5.13153 10.6344C4.83538 10.5562 4.52935 10.4293 4.21364 10.2535C3.8978 10.0777 3.63579 9.85971 3.42745 9.59914C3.21914 9.33856 3.04819 8.99679 2.91482 8.57375C2.78139 8.15046 2.71466 7.66212 2.71466 7.10879C2.71466 6.32109 2.97191 5.65041 3.48621 5.09708C3.24527 4.50465 3.26802 3.84067 3.55452 3.10493C3.74333 3.0463 4.02333 3.09029 4.39438 3.23679C4.7655 3.38339 5.03723 3.50875 5.20982 3.61277C5.38242 3.71682 5.52071 3.80479 5.6249 3.87649C6.23049 3.70721 6.85545 3.62258 7.49993 3.62258C8.14438 3.62258 8.76944 3.70721 9.37507 3.87649L9.74615 3.64212C10.0002 3.4858 10.2996 3.34258 10.6447 3.21244C10.9897 3.08225 11.2534 3.04641 11.4357 3.10503C11.7286 3.84078 11.7548 4.50476 11.5137 5.09715C12.028 5.65055 12.2853 6.3212 12.2853 7.1089C12.2853 7.66233 12.2186 8.15231 12.0851 8.57864C11.9518 9.00507 11.7794 9.34698 11.5676 9.60413C11.3561 9.86131 11.0924 10.0776 10.7767 10.2535C10.4609 10.4292 10.1549 10.5564 9.85862 10.6343C9.56237 10.7125 9.22877 10.7713 8.85769 10.8104C9.19601 11.1032 9.36525 11.5653 9.36525 12.1969V14.531C9.36525 14.6417 9.3814 14.7312 9.41396 14.7995C9.44673 14.8679 9.49872 14.915 9.57031 14.9412C9.64221 14.9672 9.70538 14.9834 9.76086 14.9899C9.81634 14.9964 9.89594 14.9997 10.0001 14.9997H12.1876C12.9623 14.9997 13.6248 14.7246 14.1747 14.1745C14.7249 13.6243 15 12.9618 15 12.1871V2.81248C14.9999 2.03778 14.7248 1.37517 14.1748 0.82512Z" fill="black"/>
<path d="M2.96872 10.9178C2.92319 10.9502 2.92969 11.0023 2.98828 11.074C3.05348 11.139 3.1055 11.1488 3.1446 11.1032C3.19012 11.0708 3.18362 11.0187 3.12493 10.9469C3.05987 10.8884 3.00781 10.8786 2.96872 10.9178Z" fill="black"/>
<path d="M2.64654 10.6737C2.62705 10.7194 2.64983 10.7585 2.71492 10.7909C2.76694 10.8236 2.80939 10.8171 2.84185 10.7715C2.86135 10.7258 2.83857 10.6867 2.77348 10.6541C2.70839 10.6345 2.66607 10.6411 2.64654 10.6737Z" fill="black"/>
<path d="M3.27154 11.2989C3.21287 11.3313 3.21287 11.3901 3.27154 11.4746C3.33013 11.5594 3.38537 11.5821 3.43753 11.543C3.49616 11.4973 3.49616 11.4355 3.43753 11.3573C3.38551 11.2729 3.33013 11.2531 3.27154 11.2989Z" fill="black"/>
<path d="M3.61343 11.738C3.5548 11.7902 3.56773 11.8518 3.65249 11.9237C3.73051 12.0016 3.79564 12.0114 3.84773 11.9527C3.89986 11.9008 3.88682 11.839 3.80867 11.7673C3.73065 11.6894 3.66552 11.6795 3.61343 11.738Z" fill="black"/>
</g>
<defs>
<clipPath id="clip0">
<rect width="15" height="15" fill="white"/>
</clipPath>
</defs>
</svg>
